<svg xmlns="http://www.w3.org/2000/svg" viewBox="0 0 100 100" fill="none" shape-rendering="auto" aria-hidden="true"><!-- Generated by DiceBear (https://www.dicebear.com) --><metadata xmlns:rdf="http://www.w3.org/1999/02/22-rdf-syntax-ns#" xmlns:xsi="http://www.w3.org/2001/XMLSchema-instance" xmlns:dc="http://purl.org/dc/elements/1.1/" xmlns:dcterms="http://purl.org/dc/terms/"><rdf:RDF><rdf:Description><dc:title>Cameo</dc:title><dc:creator>DiceBear</dc:creator><dc:source xsi:type="dcterms:URI">https://www.dicebear.com</dc:source><dcterms:license xsi:type="dcterms:URI">https://creativecommons.org/publicdomain/zero/1.0/</dcterms:license><dc:rights>“Cameo” (https://www.dicebear.com) by “DiceBear”, licensed under “CC0 1.0” (https://creativecommons.org/publicdomain/zero/1.0/)</dc:rights></rdf:Description></rdf:RDF></metadata><defs><clipPath id="dbcm-oval"><ellipse cx="50" cy="50" rx="33" ry="38"/></clipPath><g id="hair-curls-75dfc864"><path d="M-10-20h120v60a10 10 0 0 1-20 0 10 10 0 0 1-20 0 10 10 0 0 1-20 0 10 10 0 0 1-20 0 10 10 0 0 1-20 0 10 10 0 0 1-20 0Z" fill="#ffffff8f"/></g><g id="mouth-beam-75dfc864"><path d="M38 63.5q12 5 24 0" fill="none" stroke="#ffffff8f" stroke-width="5" stroke-linecap="round" stroke-linejoin="round"/></g><g id="shape-oval-75dfc864"><ellipse cx="50" cy="50" rx="33" ry="38" fill="#5ab0bf"/><g clip-path="url(#dbcm-oval)"><use href="#hair-curls-75dfc864"/><use transform="translate(2.6583, 0)" href="#mouth-beam-75dfc864"/></g></g><clipPath id="clip-75dfc864"><rect width="100" height="100" rx="0" ry="0"/></clipPath></defs><g clip-path="url(#clip-75dfc864)"><rect width="100" height="100" fill="#56d8d4"/><use transform="rotate(1, 50, 50)" href="#shape-oval-75dfc864"/></g></svg>